<svg xmlns="http://www.w3.org/2000/svg" width="16.493" height="15.707" viewBox="0 0 16.493 15.707">
    <g transform="translate(-806 -670.292)">
        <path d="M14,16.683H0v-14H11.165L9.625,4.32H1.636V15.047H12.363V8.823L14,7.119v9.563Z" transform="translate(806 669.316)"/>
        <path d="M3.839,22.574a.217.217,0,0,1-.315.016L.071,19.322A.229.229,0,0,1,.062,19l1.1-1.162a.229.229,0,0,1,.323-.009l1.886,1.785a.217.217,0,0,0,.315-.016l8.685-9.281a.229.229,0,0,1,.322-.024l1.213,1.044a.229.229,0,0,1,.024.322Z" transform="translate(808.507 660.057)"/>
    </g>
</svg>